<?xml version="1.0" standalone="no"?><!DOCTYPE svg PUBLIC "-//W3C//DTD SVG 1.1//EN" "http://www.w3.org/Graphics/SVG/1.1/DTD/svg11.dtd"><svg fill="#8e71c7" t="1583854428972" class="icon" viewBox="0 0 1024 1024" version="1.1" xmlns="http://www.w3.org/2000/svg" p-id="10781" xmlns:xlink="http://www.w3.org/1999/xlink" width="200" height="200"><defs><style type="text/css"></style></defs><path d="M545.765011 209.715349l76.987419 156.064428 190.531428 28.358885c34.611286 5.15337 45.438888 29.53057 20.052708 56.177464L694.370561 586.382081l34.069957 198.423165c4.577249 28.755927-23.151279 45.421492-47.582715 28.755927l-174.117596-90.841961-177.234587 93.131097c-23.728424 12.125155-48.124044 4.323469-43.691081-28.89919l33.313733-200.566992L175.926802 447.308629c-27.638477-25.530466-13.278421-48.826032 18.810415-53.043077l196.080817-28.484751c0 0 40.232306-81.617879 76.934207-155.938562C494.470765 159.951969 523.765975 160.708192 545.765011 209.715349z" p-id="10782"></path><path d="M865.37219 182.689832l-15.657608-34.754548 35.43914-58.826803c6.324032-11.333116 0.451278-18.720364-11.819187-17.422811l-67.618027 7.188726-40.160675-46.538943C753.700831 17.543561 743.647871 19.885909 738.926336 39.308261c-5.981225 28.647457-12.449543 60.104913-12.449543 60.104913l-64.519456 27.062356c-10.594289 4.288676-13.405311 13.531178-1.710968 19.800975l61.203944 34.863019 6.378268 71.492264c1.441838 11.710716 10.485819 12.233626 17.512862 5.999644l52.30425-47.492664 49.420573 11.423167c67.149353 79.078033 104.680131 179.396833 104.680131 285.157575 0 243.466034-198.062961 441.528995-441.510576 441.528995S68.723198 751.185544 68.723198 507.71951c0-243.447615 198.062961-441.49318 441.510576-441.49318 39.223327 0 77.870532 5.54939 115.327632 15.675004l10.558473-38.863123C595.960227 32.17377 553.854247 26.047236 510.234797 26.047236c-266.041192 0-481.688647 215.665875-481.688647 481.671251 0 266.041192 215.664851 481.707067 481.688647 481.707067s481.688647-215.684294 481.688647-481.707067C991.924467 382.356314 943.873078 268.361027 865.37219 182.689832z" p-id="10783"></path></svg>